<?xml version="1.0" encoding="UTF-8" standalone="no"?>
<svg
  width="24.185022mm"
  height="26.458384mm"
  viewBox="0 0 24.185022 26.458384"
  xmlns="http://www.w3.org/2000/svg"
>
  <g transform="translate(-1064.8157,133.58151)">
    <path
      style="fill:#ffffff;"
      d="m 1087.63,-133.58151 -0.053,0.002 c 0.053,0.0421 0.053,0.0827 0.058,0.12429 0,-0.0421 0,-0.0853 0,-0.12587 z m 0,0.1264 c 0.079,0.60473 0.1581,1.28412 0.1264,1.92951 -0.1949,2.39846 -1.2256,4.77854 -3.0615,6.38562 -1.7186,1.57506 -3.3422,1.97401 -6.3801,2.40035 -3.0378,0.42608 -6.6113,4.27046 -6.9352,8.06333 1.452,1.24847 2.904,2.4971 4.355,3.74557 2.9863,0.10375 6.0199,-1.27065 7.7858,-3.7047 -1.9387,0.37604 -3.9942,0.10691 -5.7723,-0.75383 3.7899,0.89355 8.0165,-0.92462 9.9561,-4.30421 0.985,-1.65417 1.4326,-3.61992 1.2604,-5.53731 -1.5858,3.07876 -5.0107,5.05303 -8.4647,4.93232 3.8321,-0.45925 7.1454,-3.5664 7.8475,-7.36143 0.3897,-1.94199 0.1369,-4.00654 -0.7147,-5.79522 z m -17.3395,20.04834 c -0.058,0.021 -0.053,0.0421 0,0.0611 -0.053,-0.0158 -0.1001,-0.021 -0.1581,-0.0105 -1.5984,1.85846 -3.1969,3.71677 -4.7953,5.57524 0.1527,0.0105 -0.1369,0.14114 -0.1633,0.24226 -0.1211,0.13851 -0.237,0.27703 -0.3581,0.41554 1.0792,-0.32127 2.1372,-0.65818 3.2185,-0.97734 0.3318,-0.10217 0.6657,-0.18538 0.9807,-0.33022 1.3029,-0.5035 2.1208,1.25605 3.4233,0.7554 0.75,-0.20382 1.1434,-0.88733 1.6369,-1.42096 l 0.4845,-0.56211 c -1.3019,-1.13029 -2.6286,-2.23224 -3.8957,-3.4014 -0.1159,-0.0969 -0.216,-0.21909 -0.3424,-0.27228 0.1001,0.0316 0.2528,0.0421 0.053,-0.0368 -0.053,-0.0105 -0.053,-0.0263 -0.069,-0.0421 z"
    />
  </g>
</svg>
