<svg
   viewBox="0 0 3.3073399 5.2916698"
   xmlns:inkscape="http://www.inkscape.org/namespaces/inkscape"
   xmlns:sodipodi="http://sodipodi.sourceforge.net/DTD/sodipodi-0.dtd"
   xmlns="http://www.w3.org/2000/svg"
>
   <g transform="translate(-123.93427,-172.42112)">
      <path
         style="fill:#F6F0ED"
         d="m 127.24159,177.05133 a 0.66145698,0.66145698 0 0 1 -0.66148,0.66146 0.66145698,0.66145698 0 0 1 -0.46727,-0.19397 l -1.8e-4,1.8e-4 -1.96207,-1.96306 a 0.66145698,0.66145698 0 0 1 -0.21632,-0.48899 0.66145698,0.66145698 0 0 1 0.22383,-0.49545 l 1.93289,-1.93392 a 0.66145698,0.66145698 0 0 1 0.48911,-0.21646 0.66145698,0.66145698 0 0 1 0.66147,0.66145 0.66145698,0.66145698 0 0 1 -0.21648,0.48913 l -1.05024,1.0508 a 0.66145698,0.66145698 0 0 0 -0.028,0.0326 0.66145698,0.66145698 0 0 0 -0.0294,0.0398 0.66145698,0.66145698 0 0 0 -0.0263,0.0419 0.66145698,0.66145698 0 0 0 -0.0231,0.0437 0.66145698,0.66145698 0 0 0 -0.0198,0.0453 0.66145698,0.66145698 0 0 0 -0.0163,0.0467 0.66145698,0.66145698 0 0 0 -0.0128,0.0478 0.66145698,0.66145698 0 0 0 -0.009,0.0486 0.66145698,0.66145698 0 0 0 -0.006,0.0492 0.66145698,0.66145698 0 0 0 -0.002,0.0494 0.66145698,0.66145698 0 0 0 0.002,0.0494 0.66145698,0.66145698 0 0 0 0.006,0.0492 0.66145698,0.66145698 0 0 0 0.009,0.0486 0.66145698,0.66145698 0 0 0 0.0128,0.0478 0.66145698,0.66145698 0 0 0 0.0163,0.0467 0.66145698,0.66145698 0 0 0 0.0198,0.0453 0.66145698,0.66145698 0 0 0 0.0231,0.0437 0.66145698,0.66145698 0 0 0 0.0263,0.0419 0.66145698,0.66145698 0 0 0 0.0294,0.0398 0.66145698,0.66145698 0 0 0 0.0279,0.0324 l 1.03908,1.03964 a 0.66145698,0.66145698 0 0 1 0.22778,0.4994 z"
      />
   </g>
</svg>
